<svg width="84" height="47" viewBox="0 0 84 47" fill="none" xmlns="http://www.w3.org/2000/svg">
<g clip-path="url(#clip0_54_39)">
<rect width="84" height="47" fill="#8A3CC4"/>
<path d="M43.2305 33.5312C43.2305 33.6875 43.1784 33.8047 43.0742 33.8828C42.9701 33.9609 42.8268 34.0195 42.6445 34.0586C42.4622 34.0977 42.1953 34.1172 41.8438 34.1172C41.5052 34.1172 41.2318 34.0977 41.0234 34.0586C40.8281 34.0195 40.6849 33.9609 40.5938 33.8828C40.5026 33.8047 40.457 33.6875 40.457 33.5312V31.7734C39.6888 32.5938 38.8294 33.2318 37.8789 33.6875C36.9414 34.1432 35.9453 34.3711 34.8906 34.3711C33.9661 34.3711 33.1263 34.2474 32.3711 34C31.6289 33.7656 30.9909 33.4206 30.457 32.9648C29.9362 32.5091 29.526 31.9492 29.2266 31.2852C28.9401 30.6211 28.7969 29.8659 28.7969 29.0195C28.7969 28.0299 28.9987 27.1706 29.4023 26.4414C29.806 25.7122 30.3854 25.1068 31.1406 24.625C31.8958 24.1432 32.8203 23.7852 33.9141 23.5508C35.0078 23.3034 36.2383 23.1797 37.6055 23.1797H40.0273V21.8125C40.0273 21.1354 39.9557 20.5365 39.8125 20.0156C39.6693 19.4948 39.4349 19.0651 39.1094 18.7266C38.7969 18.375 38.3867 18.1146 37.8789 17.9453C37.3711 17.763 36.7461 17.6719 36.0039 17.6719C35.2096 17.6719 34.4935 17.7695 33.8555 17.9648C33.2305 18.1471 32.6771 18.3555 32.1953 18.5898C31.7266 18.8112 31.3294 19.0195 31.0039 19.2148C30.6914 19.3971 30.457 19.4883 30.3008 19.4883C30.1966 19.4883 30.1055 19.4622 30.0273 19.4102C29.9492 19.3581 29.8776 19.2799 29.8125 19.1758C29.7604 19.0716 29.7214 18.9414 29.6953 18.7852C29.6693 18.6159 29.6562 18.4336 29.6562 18.2383C29.6562 17.9128 29.6758 17.6589 29.7148 17.4766C29.7669 17.2812 29.8776 17.099 30.0469 16.9297C30.2292 16.7604 30.5352 16.5651 30.9648 16.3438C31.3945 16.1094 31.8893 15.901 32.4492 15.7188C33.0091 15.5234 33.6211 15.3672 34.2852 15.25C34.9492 15.1198 35.6198 15.0547 36.2969 15.0547C37.5599 15.0547 38.6341 15.1979 39.5195 15.4844C40.4049 15.7708 41.1211 16.194 41.668 16.7539C42.2148 17.3008 42.612 17.9844 42.8594 18.8047C43.1068 19.625 43.2305 20.582 43.2305 21.6758V33.5312ZM40.0273 25.5039H37.2734C36.388 25.5039 35.6198 25.582 34.9688 25.7383C34.3177 25.8815 33.7773 26.1029 33.3477 26.4023C32.918 26.6888 32.599 27.0404 32.3906 27.457C32.1953 27.8607 32.0977 28.3294 32.0977 28.8633C32.0977 29.7747 32.3841 30.5039 32.957 31.0508C33.543 31.5846 34.3568 31.8516 35.3984 31.8516C36.2448 31.8516 37.026 31.6367 37.7422 31.207C38.4714 30.7773 39.2331 30.1198 40.0273 29.2344V25.5039ZM60.2031 28.7266C60.2031 29.625 60.0339 30.4258 59.6953 31.1289C59.3698 31.832 58.901 32.4245 58.2891 32.9062C57.6771 33.388 56.9479 33.7526 56.1016 34C55.2552 34.2474 54.3242 34.3711 53.3086 34.3711C52.6836 34.3711 52.0846 34.319 51.5117 34.2148C50.9518 34.1237 50.444 34.0065 49.9883 33.8633C49.5456 33.707 49.168 33.5508 48.8555 33.3945C48.543 33.2253 48.3151 33.0755 48.1719 32.9453C48.0286 32.8151 47.9245 32.6328 47.8594 32.3984C47.7943 32.1641 47.7617 31.8451 47.7617 31.4414C47.7617 31.194 47.7747 30.9857 47.8008 30.8164C47.8268 30.6471 47.8594 30.5104 47.8984 30.4062C47.9375 30.3021 47.9896 30.2305 48.0547 30.1914C48.1328 30.1393 48.2174 30.1133 48.3086 30.1133C48.4518 30.1133 48.6602 30.2044 48.9336 30.3867C49.2201 30.556 49.5651 30.7448 49.9688 30.9531C50.3854 31.1615 50.8737 31.3568 51.4336 31.5391C51.9935 31.7083 52.638 31.793 53.3672 31.793C53.9141 31.793 54.4089 31.7344 54.8516 31.6172C55.2943 31.5 55.6784 31.3307 56.0039 31.1094C56.3294 30.875 56.5768 30.582 56.7461 30.2305C56.9284 29.8789 57.0195 29.4622 57.0195 28.9805C57.0195 28.4857 56.8893 28.069 56.6289 27.7305C56.3815 27.3919 56.0495 27.0924 55.6328 26.832C55.2161 26.5716 54.7474 26.3438 54.2266 26.1484C53.7057 25.9401 53.1654 25.7253 52.6055 25.5039C52.0586 25.2826 51.5182 25.0352 50.9844 24.7617C50.4635 24.4753 49.9948 24.1302 49.5781 23.7266C49.1615 23.3229 48.8229 22.8411 48.5625 22.2812C48.3151 21.7214 48.1914 21.0508 48.1914 20.2695C48.1914 19.5794 48.3216 18.9219 48.582 18.2969C48.8555 17.6589 49.2591 17.1055 49.793 16.6367C50.3268 16.1549 50.9909 15.7708 51.7852 15.4844C52.5924 15.1979 53.5299 15.0547 54.5977 15.0547C55.0664 15.0547 55.5352 15.0938 56.0039 15.1719C56.4727 15.25 56.8958 15.3477 57.2734 15.4648C57.651 15.582 57.9701 15.7122 58.2305 15.8555C58.5039 15.9857 58.7057 16.1029 58.8359 16.207C58.9792 16.3112 59.0703 16.4023 59.1094 16.4805C59.1615 16.5586 59.194 16.6497 59.207 16.7539C59.2331 16.8451 59.2526 16.9622 59.2656 17.1055C59.2917 17.2487 59.3047 17.4245 59.3047 17.6328C59.3047 17.8542 59.2917 18.0495 59.2656 18.2188C59.2526 18.375 59.2201 18.5052 59.168 18.6094C59.1289 18.7135 59.0768 18.7917 59.0117 18.8438C58.9466 18.8828 58.875 18.9023 58.7969 18.9023C58.6797 18.9023 58.5104 18.8307 58.2891 18.6875C58.0677 18.5443 57.7812 18.3945 57.4297 18.2383C57.0781 18.069 56.6615 17.9128 56.1797 17.7695C55.7109 17.6263 55.1706 17.5547 54.5586 17.5547C54.0117 17.5547 53.5299 17.6198 53.1133 17.75C52.6966 17.8672 52.3516 18.043 52.0781 18.2773C51.8177 18.4987 51.6159 18.7656 51.4727 19.0781C51.3424 19.3906 51.2773 19.7292 51.2773 20.0938C51.2773 20.6016 51.4076 21.0312 51.668 21.3828C51.9284 21.7214 52.2669 22.0208 52.6836 22.2812C53.1003 22.5417 53.5755 22.776 54.1094 22.9844C54.6432 23.1927 55.1836 23.4076 55.7305 23.6289C56.2904 23.8503 56.8372 24.0977 57.3711 24.3711C57.918 24.6445 58.3997 24.9766 58.8164 25.3672C59.2331 25.7578 59.5651 26.2266 59.8125 26.7734C60.0729 27.3203 60.2031 27.9714 60.2031 28.7266ZM72.0977 34L69.7539 40.4648C69.6758 40.6732 69.474 40.8294 69.1484 40.9336C68.8359 41.0508 68.3542 41.1094 67.7031 41.1094C67.3646 41.1094 67.0911 41.0898 66.8828 41.0508C66.6745 41.0247 66.5117 40.9727 66.3945 40.8945C66.2904 40.8164 66.2318 40.7122 66.2188 40.582C66.2057 40.4518 66.2383 40.2956 66.3164 40.1133L68.7383 34C68.6211 33.9479 68.5104 33.8633 68.4062 33.7461C68.3021 33.6289 68.2305 33.5052 68.1914 33.375L61.9219 16.5781C61.8177 16.3047 61.7656 16.0898 61.7656 15.9336C61.7656 15.7773 61.8177 15.6536 61.9219 15.5625C62.026 15.4714 62.1953 15.4128 62.4297 15.3867C62.6641 15.3477 62.9766 15.3281 63.3672 15.3281C63.7578 15.3281 64.0638 15.3411 64.2852 15.3672C64.5065 15.3802 64.6823 15.4128 64.8125 15.4648C64.9427 15.5169 65.0339 15.5951 65.0859 15.6992C65.151 15.7904 65.2161 15.9206 65.2812 16.0898L70.3008 30.1914H70.3594L75.2031 16.0117C75.2812 15.7643 75.3724 15.6081 75.4766 15.543C75.5938 15.4648 75.763 15.4128 75.9844 15.3867C76.2057 15.3477 76.5247 15.3281 76.9414 15.3281C77.306 15.3281 77.6055 15.3477 77.8398 15.3867C78.0742 15.4128 78.2435 15.4714 78.3477 15.5625C78.4648 15.6536 78.5234 15.7773 78.5234 15.9336C78.5234 16.0898 78.4844 16.2852 78.4062 16.5195L72.0977 34Z" fill="white"/>
<path d="M21.6571 5.0618C21.6181 5.09661 21.4492 5.13837 21.2672 5.15925C20.9032 5.19406 20.3637 5.32631 20.1622 5.4168C20.0387 5.47249 19.9153 5.50729 19.4668 5.60474C19.3628 5.62563 19.2848 5.66739 19.2848 5.70219C19.2848 5.737 19.2003 5.76484 19.0898 5.76484C18.9858 5.76484 18.8948 5.79268 18.8948 5.83445C18.8948 5.86925 18.8363 5.90405 18.7648 5.90405C18.6933 5.90405 18.6348 5.9319 18.6348 5.97366C18.6348 6.00847 18.5503 6.04327 18.4398 6.04327C18.3358 6.04327 18.2449 6.07111 18.2449 6.11288C18.2449 6.14768 18.1734 6.18249 18.0824 6.18249C17.9914 6.18249 17.9199 6.21033 17.9199 6.25209C17.9199 6.2869 17.8614 6.3217 17.7899 6.3217C17.7184 6.3217 17.6599 6.34954 17.6599 6.37739C17.6599 6.40523 17.4129 6.5514 17.1074 6.70454C16.8019 6.85072 16.555 6.99689 16.555 7.0317C16.555 7.05954 16.4965 7.08738 16.425 7.08738C16.3535 7.08738 16.295 7.11523 16.295 7.15699C16.295 7.19179 16.2365 7.2266 16.165 7.2266C16.0935 7.2266 16.035 7.25444 16.035 7.29621C16.035 7.33101 15.9895 7.36581 15.9375 7.36581C15.8855 7.36581 15.84 7.39366 15.84 7.4215C15.84 7.4563 15.723 7.53983 15.58 7.6164C15.437 7.68601 15.32 7.76954 15.32 7.79738C15.32 7.83218 15.2745 7.85307 15.2225 7.85307C15.1705 7.85307 15.125 7.88091 15.125 7.92267C15.125 7.95748 15.0795 7.99228 15.0276 7.99228C14.9756 7.99228 14.9301 8.02012 14.9301 8.06189C14.9301 8.09669 14.8846 8.1315 14.8326 8.1315C14.7806 8.1315 14.7351 8.15934 14.7351 8.2011C14.7351 8.23591 14.6896 8.27071 14.6311 8.27071C14.5726 8.27071 14.4751 8.3264 14.4166 8.396C14.3581 8.46561 14.1956 8.61179 14.0526 8.72316C13.9096 8.84149 13.7146 9.01551 13.6171 9.11992C13.5261 9.23129 13.4157 9.31482 13.3832 9.31482C13.3442 9.31482 13.0647 9.57933 12.7592 9.90649C12.4537 10.2336 12.1872 10.4982 12.1677 10.4982C12.1417 10.4982 12.0182 10.6095 11.8882 10.7418C11.7583 10.874 11.6283 10.9854 11.6023 10.9854C11.5698 10.9854 11.5503 11.0341 11.5503 11.0898C11.5503 11.1455 11.5243 11.1942 11.4983 11.1942C11.4658 11.1942 11.4008 11.2708 11.3553 11.3682C11.3098 11.4657 11.2318 11.5423 11.1798 11.5423C11.1343 11.5423 11.0953 11.5631 11.0953 11.5979C11.0953 11.6258 10.8938 11.8764 10.6403 12.1548C10.3933 12.4332 10.1853 12.6908 10.1853 12.7256C10.1853 12.7674 10.0684 12.9275 9.92536 13.0876C9.78237 13.2546 9.66538 13.4077 9.66538 13.4356C9.66538 13.4634 9.56789 13.5887 9.45739 13.721C9.3404 13.8463 9.19741 14.0342 9.14541 14.1317C9.00892 14.3823 8.81393 14.6607 8.63844 14.8556C8.56045 14.9461 8.49545 15.0574 8.49545 15.1062C8.49545 15.1619 8.43696 15.2454 8.36546 15.3011C8.29396 15.3568 8.23547 15.4403 8.23547 15.489C8.23547 15.5377 8.20947 15.5795 8.17047 15.5795C8.13797 15.5795 8.10548 15.6421 8.10548 15.7187C8.10548 15.7953 8.07948 15.8579 8.04698 15.8579C8.01448 15.8579 7.95599 15.9484 7.91049 16.0668C7.86499 16.1781 7.81299 16.2756 7.787 16.2756C7.761 16.2756 7.6895 16.3869 7.62451 16.5192C7.55301 16.6515 7.47501 16.7628 7.44252 16.7628C7.41652 16.7628 7.39052 16.8185 7.39052 16.8881C7.39052 16.9577 7.33202 17.0552 7.26053 17.1109C7.18903 17.1666 7.13054 17.264 7.13054 17.3336C7.13054 17.4032 7.10454 17.4589 7.06554 17.4589C7.03304 17.4589 7.00054 17.4937 7.00054 17.5285C7.00054 17.612 6.66256 18.1828 6.59757 18.2107C6.56507 18.2246 6.54557 18.2942 6.54557 18.3708C6.54557 18.4404 6.51957 18.503 6.48058 18.503C6.44808 18.503 6.41558 18.5517 6.41558 18.6074C6.41558 18.6631 6.38958 18.7118 6.35058 18.7118C6.31809 18.7118 6.28559 18.7745 6.28559 18.8511C6.28559 18.9276 6.25959 18.9903 6.22059 18.9903C6.18809 18.9903 6.1556 19.032 6.1556 19.0808C6.1556 19.1295 6.0971 19.2409 6.0256 19.3244C5.95411 19.4079 5.89561 19.5054 5.89561 19.5402C5.89561 19.6376 5.56413 20.271 5.49264 20.2989C5.46664 20.3128 5.44064 20.3824 5.44064 20.459C5.44064 20.5286 5.41464 20.5912 5.37564 20.5912C5.34314 20.5912 5.31065 20.6539 5.31065 20.7305C5.31065 20.807 5.28465 20.8697 5.24565 20.8697C5.21315 20.8697 5.18065 20.9323 5.18065 21.0089C5.18065 21.0855 5.15466 21.1481 5.11566 21.1481C5.08316 21.1481 5.05066 21.2247 5.05066 21.3221C5.05066 21.4196 5.02466 21.4961 4.98567 21.4961C4.95317 21.4961 4.92067 21.5588 4.92067 21.6354C4.92067 21.7119 4.89467 21.7746 4.85567 21.7746C4.82318 21.7746 4.79068 21.8163 4.79068 21.872C4.79068 21.9207 4.71918 22.1087 4.62819 22.2897C4.53719 22.4706 4.4657 22.6655 4.4657 22.7212C4.4657 22.77 4.4397 22.8187 4.4007 22.8187C4.3682 22.8187 4.33571 22.8953 4.33571 22.9927C4.33571 23.0902 4.30971 23.1667 4.27071 23.1667C4.23821 23.1667 4.20571 23.2572 4.20571 23.3755C4.20571 23.4869 4.17972 23.5844 4.14072 23.5844C4.10822 23.5844 4.07572 23.6749 4.07572 23.7932C4.07572 23.9046 4.04972 24.002 4.01073 24.002C3.97823 24.002 3.94573 24.0925 3.94573 24.2039C3.94573 24.3222 3.91973 24.4336 3.88073 24.4545C3.84824 24.4753 3.81574 24.5658 3.81574 24.6424C3.81574 24.7259 3.78974 24.886 3.75724 25.0044C3.56225 25.6796 3.36077 26.7724 3.36077 27.1135C3.36077 27.2805 3.33477 27.4128 3.29577 27.4128C3.25677 27.4128 3.23077 27.8095 3.23077 28.4569C3.23077 29.1042 3.25677 29.501 3.29577 29.501C3.33477 29.501 3.36077 29.6333 3.36077 29.7934C3.36077 30.0718 3.49076 30.6217 3.62725 30.9071C3.65975 30.9767 3.68575 31.095 3.68575 31.1716C3.68575 31.2482 3.71824 31.3108 3.75074 31.3108C3.78974 31.3108 3.81574 31.3734 3.81574 31.45C3.81574 31.5266 3.84824 31.5892 3.88073 31.5892C3.91973 31.5892 3.94573 31.6519 3.94573 31.7284C3.94573 31.805 3.97823 31.8677 4.01073 31.8677C4.04972 31.8677 4.07572 31.9303 4.07572 32.0069C4.07572 32.0834 4.10822 32.1461 4.14072 32.1461C4.17972 32.1461 4.20571 32.1948 4.20571 32.2505C4.20571 32.3062 4.23821 32.3549 4.27071 32.3549C4.30971 32.3549 4.33571 32.3897 4.33571 32.4315C4.33571 32.5359 5.18065 33.4199 5.43414 33.58C5.54463 33.6496 5.63563 33.7331 5.63563 33.761C5.63563 33.7888 5.68112 33.8167 5.73312 33.8167C5.78512 33.8167 5.83061 33.8445 5.83061 33.8863C5.83061 33.9211 5.87611 33.9559 5.92811 33.9559C5.98011 33.9559 6.0256 33.9837 6.0256 34.0255C6.0256 34.0603 6.0841 34.0951 6.1556 34.0951C6.22709 34.0951 6.28559 34.1229 6.28559 34.1647C6.28559 34.1995 6.34408 34.2343 6.41558 34.2343C6.48707 34.2343 6.54557 34.2622 6.54557 34.3039C6.54557 34.3387 6.60407 34.3735 6.66906 34.3735C6.74056 34.3735 6.81205 34.4014 6.83805 34.4362C6.85755 34.471 6.96155 34.5197 7.06554 34.5476C7.17603 34.5754 7.26053 34.6241 7.26053 34.6589C7.26053 34.6937 7.35152 34.7216 7.45552 34.7216C7.56601 34.7216 7.6505 34.7494 7.6505 34.7912C7.6505 34.826 7.7675 34.8608 7.91049 34.8608C8.05348 34.8608 8.17047 34.8886 8.17047 34.9304C8.17047 34.9722 8.70994 35 9.66538 35C10.6208 35 11.1603 34.9722 11.1603 34.9304C11.1603 34.8886 11.2643 34.8608 11.3878 34.8608C11.5113 34.8608 11.6673 34.8329 11.7323 34.7981C11.7908 34.7633 12.1092 34.652 12.4277 34.5406C12.7527 34.4362 13.0452 34.3248 13.0777 34.3039C13.1167 34.2761 13.2792 34.2134 13.4481 34.1577C13.6236 34.109 13.7601 34.0394 13.7601 34.0116C13.7601 33.9837 13.8186 33.9559 13.8901 33.9559C13.9616 33.9559 14.0201 33.9211 14.0201 33.8863C14.0201 33.8445 14.0916 33.8167 14.1826 33.8167C14.2736 33.8167 14.3451 33.7819 14.3451 33.7471C14.3451 33.7053 14.4036 33.6775 14.4686 33.6775C14.5401 33.6775 14.6051 33.6496 14.6181 33.6218C14.6376 33.5661 15.1055 33.2598 15.4305 33.0928C15.515 33.051 15.58 32.9953 15.58 32.9605C15.58 32.9327 15.632 32.9118 15.697 32.9118C15.762 32.9118 15.853 32.8491 15.905 32.7726C15.957 32.696 16.035 32.6333 16.087 32.6333C16.1325 32.6333 16.2105 32.5916 16.256 32.5498C16.3015 32.5011 16.4185 32.3967 16.5225 32.3201C16.62 32.2435 16.7694 32.1113 16.8539 32.0208C16.9384 31.9373 17.0359 31.8677 17.0749 31.8677C17.1074 31.8677 17.1399 31.8329 17.1399 31.7981C17.1399 31.7563 17.1724 31.7284 17.2049 31.7284C17.2439 31.7284 17.3609 31.638 17.4649 31.5196C17.5689 31.4083 17.6859 31.3108 17.7249 31.3108C17.7574 31.3108 17.7899 31.269 17.7899 31.2134C17.7899 31.1577 17.8484 31.0881 17.9199 31.0672C17.9979 31.0393 18.1539 30.914 18.2774 30.7818C18.4008 30.6495 18.5178 30.5451 18.5373 30.5451C18.5568 30.5451 18.7063 30.4129 18.8623 30.2528C19.4343 29.6681 19.6098 29.501 19.6423 29.501C19.6943 29.501 20.8447 28.2341 20.8447 28.1715C20.8447 28.1367 20.8772 28.1089 20.9097 28.1089C20.9487 28.1089 20.9747 28.0741 20.9747 28.0392C20.9747 27.9975 21.0397 27.8931 21.1242 27.8026C21.5337 27.3432 21.9496 26.8559 21.9496 26.8211C21.9496 26.7724 22.0991 26.5845 22.7946 25.7631C22.8661 25.6796 22.9246 25.5891 22.9246 25.5682C22.9246 25.5473 23.0286 25.422 23.1521 25.2828C23.2755 25.1505 23.3795 25.0183 23.3795 24.9835C23.3795 24.9278 23.4835 24.7886 23.841 24.3709C23.945 24.2456 24.0295 24.1273 24.0295 24.0995C24.0295 24.0786 24.1075 23.9742 24.2115 23.8767C24.309 23.7723 24.504 23.5287 24.647 23.3407C24.79 23.1458 24.9849 22.9092 25.0824 22.8048C25.1864 22.7073 25.2644 22.6029 25.2644 22.582C25.2644 22.5194 25.4594 22.2688 25.8039 21.9068C25.9729 21.7189 26.1094 21.5379 26.1094 21.4961C26.1094 21.4544 26.1744 21.35 26.2589 21.2595C26.3369 21.169 26.4929 20.981 26.5968 20.8349C26.7073 20.6957 26.8568 20.5077 26.9413 20.4172C27.0193 20.3267 27.0843 20.2154 27.0843 20.1736C27.0843 20.1388 27.1168 20.104 27.1493 20.104C27.1883 20.104 27.2143 20.0553 27.2143 19.9996C27.2143 19.9439 27.2468 19.8952 27.2793 19.8952C27.3183 19.8952 27.3443 19.8464 27.3443 19.7908C27.3443 19.7351 27.3768 19.6863 27.4158 19.6863C27.4613 19.6863 27.4743 19.5611 27.4483 19.3174C27.4288 19.1225 27.3833 18.5169 27.3508 17.981C27.3183 17.445 27.2728 16.9368 27.2468 16.8464C27.1948 16.6863 27.0843 16.6306 27.0843 16.7698C27.0843 16.8116 27.0063 16.9299 26.9023 17.0273C26.8048 17.1317 26.6423 17.3406 26.5318 17.4937C26.4279 17.6468 26.2329 17.8905 26.0964 18.0297C25.9599 18.1689 25.8494 18.3151 25.8494 18.3499C25.8494 18.3847 25.6609 18.6283 25.4269 18.8859C25.1929 19.1504 25.0044 19.387 25.0044 19.4218C25.0044 19.4636 24.7575 19.756 24.452 20.0831C24.1465 20.4103 23.8995 20.6887 23.8995 20.7026C23.8995 20.7513 23.529 21.1829 23.0741 21.6771C22.8466 21.9207 22.6646 22.1365 22.6646 22.1574C22.6646 22.227 22.0861 22.8187 22.0146 22.8187C21.9821 22.8187 21.9496 22.8535 21.9496 22.8883C21.9496 22.9649 21.2672 23.7236 21.2022 23.7236C21.1827 23.7236 20.9162 23.9881 20.6172 24.3152C20.3117 24.6424 20.0192 24.9069 19.9673 24.9069C19.9153 24.9069 19.8698 24.9417 19.8698 24.9765C19.8698 25.0183 19.7333 25.1853 19.5708 25.3454C19.4018 25.5055 19.2003 25.7074 19.1158 25.7979C19.0313 25.8814 18.9338 25.951 18.8883 25.951C18.8493 25.951 18.7388 26.0415 18.6478 26.1459C18.5503 26.2503 18.3553 26.4313 18.2124 26.5427C18.0694 26.661 17.9069 26.8002 17.8549 26.8559C17.8029 26.9116 17.6794 27.0021 17.5819 27.0578C17.4779 27.1135 17.3999 27.1831 17.3999 27.2179C17.3999 27.2457 17.3674 27.2736 17.3349 27.2736C17.2959 27.2736 17.2309 27.3084 17.1854 27.3432C16.8799 27.6146 16.7824 27.6912 16.6785 27.726C16.607 27.7539 16.555 27.7956 16.555 27.8235C16.555 27.8513 16.451 27.914 16.3275 27.9696C16.204 28.0253 16.1 28.088 16.1 28.1228C16.1 28.1506 16.0415 28.1785 15.97 28.1785C15.8985 28.1785 15.84 28.2063 15.84 28.2481C15.84 28.2829 15.7815 28.3177 15.71 28.3177C15.6385 28.3177 15.58 28.3455 15.58 28.3873C15.58 28.4221 15.5215 28.4569 15.45 28.4569C15.3785 28.4569 15.32 28.4847 15.32 28.5195C15.32 28.5543 15.19 28.6379 15.0276 28.7144C14.8651 28.784 14.7351 28.8606 14.7351 28.8885C14.7351 28.9233 14.6766 28.9441 14.6051 28.9441C14.5336 28.9441 14.4751 28.972 14.4751 29.0138C14.4751 29.0486 14.4036 29.0834 14.3191 29.0834C14.2281 29.0834 14.1371 29.1112 14.1176 29.153C14.0981 29.1878 14.0071 29.2226 13.9161 29.2226C13.8316 29.2226 13.7601 29.2504 13.7601 29.2922C13.7601 29.327 13.6756 29.3618 13.5651 29.3618C13.4611 29.3618 13.3702 29.3896 13.3702 29.4314C13.3702 29.4662 13.2857 29.501 13.1752 29.501C13.0712 29.501 12.9802 29.5288 12.9802 29.5637C12.9802 29.5985 12.9022 29.6402 12.8047 29.6611C12.7007 29.682 12.4602 29.7516 12.2652 29.8212C12.0702 29.8838 11.7908 29.9535 11.6478 29.9674C11.5048 29.9883 11.3618 30.03 11.3293 30.0648C11.2903 30.0996 10.9328 30.1275 10.5298 30.1275C9.82787 30.1275 9.78237 30.1205 9.63288 29.9535C9.54189 29.863 9.47039 29.7516 9.47039 29.7098C9.47039 29.675 9.44439 29.6402 9.4054 29.6402C9.3729 29.6402 9.3404 29.5845 9.3404 29.5149C9.3404 29.4453 9.3079 29.3548 9.2624 29.3061C9.16491 29.2017 9.17141 27.1343 9.2689 26.9325C9.3079 26.8559 9.3404 26.6401 9.3404 26.4452C9.3404 26.2503 9.3729 26.0902 9.4054 26.0902C9.44439 26.0902 9.47039 25.951 9.47039 25.777C9.47039 25.603 9.49639 25.4638 9.52889 25.4638C9.56139 25.4638 9.60038 25.3594 9.61988 25.2341C9.67838 24.8721 9.73688 24.6006 9.79537 24.4545C10.0359 23.8141 10.0814 23.7236 10.1983 23.7236C10.2633 23.7236 10.3153 23.6888 10.3153 23.654C10.3153 23.6122 10.3608 23.5844 10.4193 23.5844C10.4778 23.5844 10.6598 23.5078 10.8288 23.4173C10.9913 23.3268 11.2448 23.1946 11.3878 23.1319C11.5308 23.0693 11.7323 22.9718 11.8362 22.9161C11.9402 22.8604 12.0637 22.8187 12.1157 22.8187C12.1612 22.8187 12.2002 22.7839 12.2002 22.7491C12.2002 22.7073 12.2587 22.6795 12.3302 22.6795C12.4082 22.6795 12.5317 22.6168 12.6097 22.5403C12.6877 22.4567 12.9087 22.3105 13.1102 22.2061C13.3052 22.1087 13.4806 21.9973 13.4871 21.9695C13.5001 21.9416 13.5651 21.9138 13.6366 21.9138C13.7016 21.9138 13.7601 21.879 13.7601 21.8442C13.7601 21.8024 13.8186 21.7746 13.8901 21.7746C13.9616 21.7746 14.0201 21.7398 14.0201 21.705C14.0201 21.6632 14.0656 21.6354 14.1176 21.6354C14.1696 21.6354 14.2151 21.6006 14.2151 21.5657C14.2151 21.524 14.2606 21.4961 14.3126 21.4961C14.3711 21.4961 14.4491 21.4613 14.4946 21.4265C14.6246 21.3082 15.2095 20.9114 15.4045 20.807C15.502 20.7513 15.58 20.6817 15.58 20.6469C15.58 20.6191 15.632 20.5912 15.697 20.5912C15.762 20.5912 15.853 20.5286 15.905 20.452C15.957 20.3755 16.022 20.3128 16.0545 20.3128C16.087 20.3128 16.204 20.2362 16.321 20.1388C16.438 20.0413 16.5615 19.9648 16.594 19.9648C16.6265 19.9648 16.698 19.9021 16.7499 19.8256C16.8019 19.749 16.8799 19.6863 16.9254 19.6863C16.9709 19.6863 17.0099 19.6515 17.0099 19.6167C17.0099 19.575 17.0554 19.5471 17.1074 19.5471C17.1594 19.5471 17.2049 19.5123 17.2049 19.4775C17.2049 19.4358 17.2374 19.4079 17.2699 19.4079C17.3089 19.4079 17.4129 19.3383 17.4974 19.2478C17.6924 19.0599 17.7639 18.9972 18.0499 18.7814C18.3358 18.5657 18.4528 18.4613 18.7713 18.155C18.9078 18.0227 19.1223 17.8139 19.2523 17.7025C19.3888 17.5842 19.6293 17.3545 19.7983 17.1805C20.1752 16.7976 20.5717 16.4287 20.7992 16.2408C20.8967 16.1642 20.9747 16.0807 20.9747 16.0459C20.9747 16.018 21.0982 15.8579 21.2542 15.6909C21.6571 15.2454 22.3851 14.3892 22.5151 14.1943C22.5801 14.1108 22.7296 13.9298 22.8466 13.7975C22.9571 13.6723 23.0546 13.533 23.0546 13.4913C23.0546 13.4565 23.0871 13.4217 23.1196 13.4217C23.1586 13.4217 23.1846 13.3729 23.1846 13.3173C23.1846 13.2616 23.2171 13.2128 23.2495 13.2128C23.2885 13.2128 23.3145 13.178 23.3145 13.1363C23.3145 13.0876 23.3665 13.004 23.4315 12.9414C23.5745 12.8022 23.8995 12.2662 23.8995 12.1687C23.8995 12.1339 23.932 12.0991 23.9645 12.0991C24.0035 12.0991 24.0295 12.0504 24.0295 11.9947C24.0295 11.939 24.062 11.8903 24.0945 11.8903C24.1335 11.8903 24.1595 11.8416 24.1595 11.7859C24.1595 11.7302 24.192 11.6815 24.2245 11.6815C24.2635 11.6815 24.2895 11.6188 24.2895 11.5423C24.2895 11.4657 24.322 11.403 24.3545 11.403C24.3935 11.403 24.4195 11.3613 24.4195 11.3056C24.4195 11.1942 24.751 10.5399 24.8225 10.5121C24.8485 10.4982 24.8745 10.3937 24.8745 10.2824C24.8745 10.171 24.9069 10.0805 24.9394 10.0805C24.9784 10.0805 25.0044 9.98306 25.0044 9.87168C25.0044 9.75335 25.0369 9.66286 25.0694 9.66286C25.1084 9.66286 25.1344 9.55845 25.1344 9.43316C25.1344 9.30786 25.1604 9.17561 25.1929 9.13384C25.3229 8.99463 25.4464 6.97601 25.3359 6.85768C25.2969 6.81591 25.2644 6.6767 25.2644 6.5514C25.2644 6.42611 25.2384 6.3217 25.1994 6.3217C25.1669 6.3217 25.1344 6.27297 25.1344 6.21729C25.1344 6.06415 24.6275 5.54906 24.322 5.382C24.179 5.30543 24.0555 5.2219 24.0425 5.1871C24.0295 5.15925 23.932 5.13837 23.8345 5.13837C23.7305 5.13837 23.6265 5.10357 23.607 5.06876C23.555 4.97828 21.7416 4.97828 21.6571 5.0618ZM19.2328 8.66747C19.3628 8.79277 19.3953 9.32178 19.2913 9.6907C19.2588 9.80904 19.1808 10.0944 19.1223 10.3241C19.0638 10.5538 18.9858 10.7975 18.9533 10.8601C18.9208 10.9297 18.8948 11.0481 18.8948 11.1246C18.8948 11.2012 18.8688 11.2638 18.8298 11.2638C18.7973 11.2638 18.7648 11.3265 18.7648 11.403C18.7648 11.4796 18.7388 11.5423 18.6998 11.5423C18.6673 11.5423 18.6348 11.6188 18.6348 11.7093C18.6348 11.8068 18.6088 11.9042 18.5698 11.9251C18.5373 11.946 18.5048 12.0295 18.5048 12.0991C18.5048 12.1687 18.4853 12.2383 18.4593 12.2523C18.4268 12.2592 18.2904 12.5307 18.1474 12.8439C18.0044 13.1641 17.8679 13.4217 17.8419 13.4217C17.8094 13.4217 17.7899 13.4704 17.7899 13.5261C17.7899 13.5818 17.7639 13.6305 17.7249 13.6305C17.6924 13.6305 17.6599 13.6931 17.6599 13.7697C17.6599 13.8463 17.6339 13.9089 17.6079 13.9089C17.5754 13.9089 17.5169 14.0203 17.4649 14.1525C17.4129 14.2848 17.3544 14.3962 17.3219 14.3962C17.2959 14.3962 17.2699 14.4379 17.2699 14.4797C17.2699 14.5563 17.1854 14.6816 16.8799 15.0714C16.8474 15.1201 16.8149 15.1897 16.8149 15.2315C16.8149 15.2663 16.7889 15.3011 16.7499 15.3011C16.7174 15.3011 16.685 15.3498 16.685 15.4055C16.685 15.4612 16.659 15.5099 16.62 15.5099C16.5875 15.5099 16.555 15.5447 16.555 15.5795C16.555 15.6213 16.4835 15.7326 16.3925 15.8301C16.3015 15.9275 16.23 16.0389 16.23 16.0737C16.23 16.1155 16.0545 16.3313 15.84 16.561C15.6255 16.7837 15.45 17.0204 15.45 17.0761C15.45 17.1317 15.424 17.1805 15.398 17.1805C15.3395 17.1805 14.6051 17.9392 14.6051 17.9949C14.6051 18.0436 14.2866 18.3638 14.2346 18.3638C14.2086 18.3638 13.9551 18.6005 13.6756 18.8859C13.3962 19.1712 13.1427 19.4079 13.1102 19.4079C13.0712 19.4079 13.0452 19.4288 13.0452 19.4566C13.0452 19.4914 12.9347 19.5889 12.7982 19.6863C12.5447 19.8673 12.4472 19.9509 12.3107 20.0761C12.2652 20.111 12.1352 20.1945 12.0247 20.2502C11.9077 20.2989 11.8102 20.3685 11.8102 20.3963C11.8102 20.4311 11.7518 20.452 11.6803 20.452C11.6088 20.452 11.5503 20.4799 11.5503 20.5216C11.5503 20.5564 11.4658 20.5912 11.3553 20.5912C11.2058 20.5912 11.1603 20.5564 11.1603 20.459C11.1603 20.3824 11.1928 20.2989 11.2253 20.278C11.2643 20.2571 11.2903 20.1736 11.2903 20.097C11.2903 20.0274 11.3228 19.9648 11.3553 19.9648C11.3943 19.9648 11.4203 19.9021 11.4203 19.8256C11.4203 19.749 11.4528 19.6863 11.4853 19.6863C11.5243 19.6863 11.5503 19.5959 11.5503 19.4845C11.5503 19.3731 11.5698 19.2687 11.6023 19.2548C11.6283 19.2409 11.7518 19.0112 11.8752 18.7466C11.9987 18.4752 12.1352 18.2176 12.1807 18.1689C12.2262 18.1202 12.2652 18.0297 12.2652 17.974C12.2652 17.9183 12.2977 17.8765 12.3302 17.8765C12.3692 17.8765 12.3952 17.8139 12.3952 17.7373C12.3952 17.6608 12.4277 17.5981 12.4602 17.5981C12.4992 17.5981 12.5252 17.5424 12.5252 17.4728C12.5252 17.4032 12.5837 17.3058 12.6552 17.2501C12.7267 17.1944 12.7852 17.0969 12.7852 17.0273C12.7852 16.9577 12.8177 16.902 12.8502 16.902C12.8892 16.902 12.9152 16.8394 12.9152 16.7628C12.9152 16.6863 12.9477 16.6236 12.9802 16.6236C13.0192 16.6236 13.0452 16.5958 13.0452 16.554C13.0452 16.4914 13.2987 16.0528 13.4352 15.8788C13.4676 15.8301 13.5001 15.7466 13.5001 15.6839C13.5001 15.6282 13.5326 15.5795 13.5651 15.5795C13.6041 15.5795 13.6301 15.5308 13.6301 15.4751C13.6301 15.4194 13.6561 15.3707 13.6886 15.3707C13.7211 15.3707 13.7796 15.2732 13.8251 15.1619C13.8706 15.0435 13.9291 14.953 13.9616 14.953C13.9941 14.953 14.0201 14.8904 14.0201 14.8138C14.0201 14.7372 14.0461 14.6746 14.0721 14.6746C14.1046 14.6746 14.1826 14.5632 14.2541 14.431C14.3191 14.2987 14.3971 14.1873 14.4231 14.1873C14.4556 14.1873 14.4751 14.1386 14.4751 14.0829C14.4751 14.0273 14.5076 13.9785 14.5401 13.9785C14.5791 13.9785 14.6051 13.9298 14.6051 13.8741C14.6051 13.8184 14.6376 13.7697 14.6701 13.7697C14.7091 13.7697 14.7351 13.7349 14.7351 13.6931C14.7351 13.6514 14.8261 13.4843 14.9301 13.3173C15.0406 13.1502 15.125 12.9971 15.125 12.9692C15.125 12.9483 15.19 12.8509 15.2745 12.7604C15.515 12.482 15.58 12.3845 15.58 12.3079C15.58 12.2731 15.6125 12.2383 15.645 12.2383C15.684 12.2383 15.71 12.1896 15.71 12.1339C15.71 12.0782 15.7425 12.0295 15.775 12.0295C15.814 12.0295 15.84 11.9947 15.84 11.9599C15.84 11.9181 15.9115 11.8068 16.0025 11.7093C16.0935 11.6119 16.165 11.5144 16.165 11.4866C16.165 11.4587 16.282 11.3056 16.425 11.1385C16.568 10.9784 16.685 10.8183 16.685 10.7766C16.685 10.7139 17.3154 9.96217 17.5559 9.73943C17.6209 9.67678 17.8354 9.461 18.0304 9.25914C18.2319 9.06424 18.4138 8.89718 18.4463 8.89718C18.4723 8.89718 18.5373 8.85541 18.5828 8.80669C18.6478 8.73708 18.9338 8.59787 19.0833 8.5561C19.1028 8.54914 19.1678 8.59787 19.2328 8.66747Z" fill="white"/>
</g>
<defs>
<clipPath id="clip0_54_39">
<rect width="84" height="47" fill="white"/>
</clipPath>
</defs>
</svg>
